HIERARCHY
ROOT Hips
{
	OFFSET 30.010300 -23.524015 92.717590
	CHANNELS 6 Xposition Yposition Zposition Xrotation Yrotation Zrotation
	JOINT spine
	{
		OFFSET 0.000000 -0.429888 7.475601
		CHANNELS 3 Xrotation Yrotation Zrotation
		JOINT spine1
		{
			OFFSET 0.000000 0.000000 9.923012
			CHANNELS 3 Xrotation Yrotation Zrotation
			JOINT spine2
			{
				OFFSET 0.000000 -0.000002 9.508041
				CHANNELS 3 Xrotation Yrotation Zrotation
				JOINT Neck
				{
					OFFSET 0.000000 -1.163843 24.411110
					CHANNELS 3 Xrotation Yrotation Zrotation
					JOINT Head
					{
						OFFSET 0.000000 -0.000002 7.375229
						CHANNELS 3 Xrotation Yrotation Zrotation
						End Site
						{
							OFFSET 0.000000 5.887407 17.852203
						}
					}
				}
				JOINT RightShoulder
				{
					OFFSET -4.003559 0.557467 10.267906
					CHANNELS 3 Xrotation Yrotation Zrotation
					JOINT RightArm
					{
						OFFSET 0.000000 -0.000002 13.467300
						CHANNELS 3 Xrotation Yrotation Zrotation
						JOINT RightArmRoll
						{
							OFFSET 0.000000 -0.000002 6.798584
							CHANNELS 3 Xrotation Yrotation Zrotation
							JOINT RightForeArm
							{
								OFFSET 0.000000 -0.000004 19.801804
								CHANNELS 3 Xrotation Yrotation Zrotation
								JOINT RightForeArmRoll
								{
									OFFSET 0.000000 0.000000 7.629059
									CHANNELS 3 Xrotation Yrotation Zrotation
									JOINT RightHand
									{
										OFFSET 0.000000 -0.000002 15.309799
										CHANNELS 3 Xrotation Yrotation Zrotation
										End Site
										{
											OFFSET 0.000000 0.000000 0.100006
										}
									}
								}
							}
						}
					}
				}
				JOINT LeftShoulder
				{
					OFFSET 4.003559 0.557467 10.267906
					CHANNELS 3 Xrotation Yrotation Zrotation
					JOINT LeftArm
					{
						OFFSET 0.000000 -0.000002 13.467300
						CHANNELS 3 Xrotation Yrotation Zrotation
						JOINT LeftArmRoll
						{
							OFFSET 0.000000 -0.000002 6.798584
							CHANNELS 3 Xrotation Yrotation Zrotation
							JOINT LeftForeArm
							{
								OFFSET 0.000000 -0.000004 19.801804
								CHANNELS 3 Xrotation Yrotation Zrotation
								JOINT LeftForeArmRoll
								{
									OFFSET 0.000000 0.000000 7.629059
									CHANNELS 3 Xrotation Yrotation Zrotation
									JOINT LeftHand
									{
										OFFSET 0.000000 -0.000002 15.309799
										CHANNELS 3 Xrotation Yrotation Zrotation
										End Site
										{
											OFFSET 0.000000 0.000000 0.100006
										}
									}
								}
							}
						}
					}
				}
			}
		}
	}
	JOINT RightUpLeg
	{
		OFFSET -6.626091 1.019270 -1.215042
		CHANNELS 3 Xrotation Yrotation Zrotation
		JOINT RightUpLegRoll
		{
			OFFSET 0.000000 -0.000002 17.951698
			CHANNELS 3 Xrotation Yrotation Zrotation
			JOINT RightLeg
			{
				OFFSET 0.000000 0.000004 -22.230400
				CHANNELS 3 Xrotation Yrotation Zrotation
				JOINT RightLegRoll
				{
					OFFSET 0.000000 -0.000004 22.303200
					CHANNELS 3 Xrotation Yrotation Zrotation
					JOINT RightFoot
					{
						OFFSET 0.000000 -0.000004 18.563606
						CHANNELS 3 Xrotation Yrotation Zrotation
						JOINT RightToeBase
						{
							OFFSET 0.000000 -0.000002 15.518295
							CHANNELS 3 Xrotation Yrotation Zrotation
							End Site
							{
								OFFSET 0.006578 0.866261 7.515381
							}
						}
					}
				}
			}
		}
	}
	JOINT LeftUpLeg
	{
		OFFSET 6.626091 1.019270 -1.215042
		CHANNELS 3 Xrotation Yrotation Zrotation
		JOINT LeftUpLegRoll
		{
			OFFSET 0.000000 -0.000002 17.951797
			CHANNELS 3 Xrotation Yrotation Zrotation
			JOINT LeftLeg
			{
				OFFSET 0.000000 -0.000004 22.230301
				CHANNELS 3 Xrotation Yrotation Zrotation
				JOINT LeftLegRoll
				{
					OFFSET 0.000000 -0.000004 22.509293
					CHANNELS 3 Xrotation Yrotation Zrotation
					JOINT LeftFoot
					{
						OFFSET 0.000000 -0.000004 18.357498
						CHANNELS 3 Xrotation Yrotation Zrotation
						JOINT LeftToeBase
						{
							OFFSET 0.000000 -0.000002 15.518295
							CHANNELS 3 Xrotation Yrotation Zrotation
							End Site
							{
								OFFSET -0.029476 0.866261 7.515396
							}
						}
					}
				}
			}
		}
	}
}
MOTION
Frames: 12
Frame Time: 0.041667
39.099998 -17.589321 92.942894 -1.976433 -2.445414 38.786032 0.108782 -0.343430 0.564180 4.223890 -0.681134 1.132134 5.868880 -0.667527 1.140187 -18.484295 18.388821 5.755476 10.300340 -9.492179 1.649330 -3.793110 -56.764623 -4.264858 137.922843 -14.598570 75.343817 0.000011 0.000009 0.000004 12.782653 -52.393562 12.598304 -0.000000 0.000001 -3.003041 -5.000155 -8.000007 0.000016 -9.470433 71.701304 11.934102 85.773625 37.916538 -58.375878 -0.000003 0.000022 0.000005 64.734381 11.257983 -3.331532 0.000008 0.000000 3.002798 -5.000311 7.998751 -0.000152 -2.981012 -178.798629 -2.456572 179.999991 -0.000005 -1.241005 160.944078 2.816975 -0.470449 -0.000004 0.000004 0.553917 72.537750 6.820618 2.084402 27.379151 -7.260110 2.811421 -5.494995 -179.787982 6.159296 -0.000005 -0.000005 -1.082421 -13.461593 -2.198097 0.233331 0.000001 -0.000001 -0.050471 67.751317 -6.983311 -1.989592 25.457469 7.355653 -0.000744 
39.048504 -17.617521 92.934303 -1.959754 -2.436793 38.994937 0.109267 -0.344398 0.567642 4.224892 -0.684226 1.139071 5.869885 -0.670535 1.147165 -18.473809 18.379317 5.759220 10.309169 -9.489086 1.658254 -3.808502 -56.780172 -4.284754 137.913103 -14.597204 75.396013 0.000010 0.000009 0.000003 12.716233 -52.381301 12.558113 0.000001 0.000001 -3.003042 -5.000154 -8.000010 0.000015 -9.458982 71.703087 11.921587 85.706074 37.767818 -58.079079 -0.000004 0.000023 0.000004 64.714027 11.327610 -3.387263 0.000009 0.000000 3.002798 -5.000313 7.998752 -0.000148 -2.972494 -178.821579 -2.443339 179.999991 -0.000005 -1.240999 160.918628 2.782504 -0.475954 -0.000004 0.000005 0.554779 72.550317 6.820533 2.084422 27.383951 -7.259354 2.837407 -5.563572 -179.790988 6.196360 -0.000005 -0.000005 -1.082440 -13.493033 -2.253338 0.227489 0.000000 -0.000001 -0.048550 67.731291 -6.984892 -1.986673 25.457971 7.355654 -0.001535 
38.989601 -17.624115 92.922089 -1.942775 -2.427604 39.202984 0.109655 -0.345492 0.571161 4.225715 -0.687653 1.146124 5.870708 -0.673878 1.154254 -18.464532 18.373052 5.764239 10.318573 -9.487955 1.667595 -3.824660 -56.793091 -4.305280 137.903773 -14.590464 75.449651 0.000011 0.000009 0.000004 12.633005 -52.375451 12.510695 0.000001 0.000001 -3.003039 -5.000153 -8.000008 0.000010 -9.447935 71.708285 11.909722 85.636113 37.618988 -57.775744 -0.000002 0.000024 0.000005 64.699588 11.394747 -3.440950 0.000007 0.000000 3.002802 -5.000313 7.998752 -0.000151 -2.968382 -178.843545 -2.430852 179.999991 -0.000005 -1.240999 160.885830 2.749819 -0.480488 -0.000004 0.000004 0.556011 72.565152 6.820450 2.084405 27.384918 -7.258660 2.866717 -5.633614 -179.793009 6.233066 -0.000005 -0.000004 -1.082479 -13.526889 -2.308530 0.221599 0.000001 -0.000001 -0.046697 67.710944 -6.986431 -1.983867 25.458577 7.355641 -0.002396 
38.960003 -17.657118 92.918800 -1.925609 -2.417972 39.410328 0.109984 -0.346678 0.574707 4.226419 -0.691315 1.153244 5.871402 -0.677454 1.161425 -18.456238 18.368991 5.770187 10.328418 -9.488200 1.677246 -3.841352 -56.804187 -4.326273 137.894908 -14.579935 75.504552 0.000009 0.000010 0.000007 12.538057 -52.374126 12.458273 -0.000001 0.000001 -3.003038 -5.000151 -8.000011 0.000016 -9.437160 71.715689 11.898254 85.564990 37.470151 -57.467928 -0.000003 0.000023 0.000005 64.689268 11.460138 -3.493244 0.000007 0.000000 3.002797 -5.000313 7.998752 -0.000153 -2.967329 -178.865524 -2.418872 179.999991 -0.000005 -1.241001 160.848018 2.718005 -0.484489 -0.000004 0.000002 0.557497 72.581579 6.820337 2.084385 27.383458 -7.257992 2.898388 -5.704663 -179.795031 6.269574 -0.000004 -0.000004 -1.082520 -13.562462 -2.363679 0.215657 0.000001 -0.000001 -0.044896 67.690392 -6.988021 -1.980885 25.459185 7.355653 -0.003295 
38.932503 -17.714020 92.919197 -1.908339 -2.408062 39.617286 0.110275 -0.347913 0.578279 4.227042 -0.695112 1.160402 5.872028 -0.681164 1.168633 -18.448411 18.366225 5.776641 10.338384 -9.489224 1.687053 -3.858323 -56.814074 -4.347493 137.886274 -14.567113 75.560170 0.000007 0.000009 0.000003 12.436346 -52.375250 12.402931 -0.000001 0.000003 -3.003040 -5.000150 -8.000009 0.000010 -9.426546 71.724513 11.887030 85.494106 37.321448 -57.158165 -0.000004 0.000020 0.000004 64.681208 11.524585 -3.544780 0.000007 0.000000 3.002797 -5.000311 7.998750 -0.000150 -2.968038 -178.886493 -2.407224 179.999991 -0.000005 -1.240998 160.807269 2.687111 -0.489058 -0.000004 0.000004 0.559120 72.598873 6.820236 2.084415 27.380478 -7.257349 2.931393 -5.776292 -179.797025 6.305997 -0.000006 -0.000004 -1.082561 -13.598954 -2.418800 0.209647 0.000001 -0.000001 -0.043121 67.669642 -6.989625 -1.977918 25.459800 7.355657 -0.004211 
38.882599 -17.741619 92.912689 -1.891078 -2.398004 39.824248 0.110557 -0.349162 0.581851 4.227645 -0.698942 1.167572 5.872631 -0.684908 1.175854 -18.440730 18.363821 5.783257 10.348569 -9.490443 1.696924 -3.875415 -56.823752 -4.368797 137.877627 -14.554284 75.615481 0.000010 0.000010 0.000005 12.332970 -52.376964 12.346871 -0.000001 0.000003 -3.003040 -5.000148 -8.000008 0.000014 -9.415985 71.733618 11.875915 85.424602 37.172980 -56.848467 -0.000003 0.000020 0.000005 64.673934 11.588782 -3.596148 0.000008 0.000001 3.002795 -5.000314 7.998753 -0.000151 -2.969184 -178.908472 -2.395582 179.999991 -0.000005 -1.241003 160.765701 2.657161 -0.493322 -0.000003 0.000005 0.560788 72.616481 6.820064 2.084413 27.377109 -7.256718 2.964725 -5.848051 -179.798050 6.342319 -0.000005 -0.000004 -1.082610 -13.635656 -2.473922 0.203573 0.000001 -0.000001 -0.041361 67.648898 -6.991210 -1.975047 25.460396 7.355650 -0.005122 
38.845200 -17.791319 92.906395 -1.873939 -2.387932 40.031295 0.110853 -0.350385 0.585416 4.228289 -0.702705 1.174728 5.873277 -0.688586 1.183046 -18.432765 18.360785 5.789582 10.358539 -9.491272 1.706699 -3.892344 -56.833932 -4.389999 137.869008 -14.542246 75.670962 0.000011 0.000009 0.000003 12.232985 -52.377432 12.292303 0.000001 0.000000 -3.003043 -5.000156 -8.000008 0.000013 -9.405287 71.742039 11.864594 85.357830 37.025134 -56.541337 -0.000004 0.000022 0.000007 64.665554 11.653522 -3.647757 0.000009 0.000000 3.002798 -5.000311 7.998751 -0.000152 -2.969447 -178.929441 -2.383854 179.999991 -0.000005 -1.241004 160.725662 2.625351 -0.498348 -0.000004 0.000005 0.562381 72.633666 6.819947 2.084347 27.374445 -7.256090 2.997391 -5.919515 -179.800085 6.378814 -0.000006 -0.000004 -1.082661 -13.671978 -2.529031 0.197424 0.000001 -0.000001 -0.039585 67.628257 -6.992807 -1.972074 25.461007 7.355650 -0.006040 
38.803299 -17.823420 92.922485 -1.857001 -2.377991 40.238816 0.111201 -0.351543 0.588963 4.229022 -0.706299 1.181828 5.874002 -0.692094 1.190200 -18.424203 18.356166 5.795303 10.368267 -9.491107 1.716268 -3.908930 -56.845533 -4.410893 137.860087 -14.533266 75.725262 0.000015 0.000009 0.000005 12.141489 -52.374717 12.241464 0.000002 0.000005 -3.003038 -5.000153 -8.000008 0.000017 -9.394431 71.748849 11.852992 85.295006 36.877820 -56.238907 -0.000005 0.000021 0.000006 64.654509 11.719518 -3.700389 0.000007 0.000000 3.002799 -5.000312 7.998751 -0.000153 -2.967523 -178.951407 -2.371747 179.999991 -0.000005 -1.240997 160.689230 2.593612 -0.502580 -0.000004 0.000004 0.563789 72.649573 6.819849 2.084365 27.373588 -7.255422 3.028376 -5.990222 -179.802093 6.415483 -0.000004 -0.000005 -1.082702 -13.707013 -2.584163 0.191204 0.000001 -0.000001 -0.037773 67.607726 -6.994403 -1.969097 25.461610 7.355650 -0.006924 
38.740005 -17.851717 92.928596 -1.840385 -2.368329 40.447021 0.111619 -0.352601 0.592456 4.229896 -0.709624 1.188855 5.874886 -0.695335 1.197255 -18.414617 18.348969 5.799976 10.377443 -9.489365 1.725472 -3.924918 -56.859245 -4.431323 137.851126 -14.528185 75.778900 0.000007 0.000012 0.000004 12.063487 -52.366709 12.196481 0.000001 0.000002 -3.003041 -5.000156 -8.000004 0.000013 -9.383221 71.753029 11.840914 85.237223 36.731405 -55.943166 -0.000004 0.000026 0.000005 64.638930 11.787610 -3.754435 0.000008 0.000000 3.002799 -5.000311 7.998753 -0.000154 -2.962091 -178.974384 -2.359016 179.999991 -0.000005 -1.240001 160.658712 2.561039 -0.507449 -0.000003 0.000003 0.564914 72.663753 6.819746 2.084383 27.375666 -7.254703 3.056682 -6.059741 -179.803104 6.452308 -0.000005 -0.000005 -1.082733 -13.740263 -2.639339 0.184911 0.000001 -0.000001 -0.035895 67.587495 -6.995947 -1.966388 25.462214 7.355654 -0.007769 
38.700703 -17.889317 92.913094 -1.824177 -2.359085 40.656281 0.112138 -0.353517 0.595904 4.230979 -0.712580 1.195759 5.875959 -0.698207 1.204202 -18.403572 18.338170 5.803196 10.386044 -9.485466 1.734212 -3.940093 -56.875873 -4.451077 137.841837 -14.528473 75.831431 0.000010 0.000009 0.000003 12.004143 -52.351699 12.159646 0.000001 0.000000 -3.003039 -5.000151 -8.000010 0.000014 -9.371603 71.753500 11.828099 85.185682 36.585946 -55.656524 -0.000005 0.000025 0.000006 64.617373 11.858552 -3.810664 0.000008 0.000000 3.002801 -5.000313 7.998753 -0.000151 -2.951829 -178.997320 -2.345541 179.999991 -0.000005 -1.240004 160.636036 2.525775 -0.512692 -0.000003 0.000004 0.565634 72.675364 6.819694 2.084468 27.381872 -7.253903 3.081314 -6.127632 -179.805126 6.489578 -0.000006 -0.000004 -1.082747 -13.770927 -2.694547 0.178557 0.000001 -0.000001 -0.033935 67.567674 -6.997519 -1.963460 25.462722 7.355648 -0.008546 
38.658401 -17.931122 92.924492 -1.808483 -2.350408 40.866801 0.112788 -0.354257 0.599282 4.232311 -0.715064 1.202526 5.877281 -0.700609 1.211008 -18.390761 18.322843 5.804605 10.393857 -9.478828 1.742344 -3.954251 -56.896357 -4.470012 137.831851 -14.537194 75.881032 0.000015 0.000010 0.000006 11.968464 -52.327596 12.133104 -0.000000 0.000001 -3.003039 -5.000155 -8.000009 0.000012 -9.359361 71.749348 11.814395 85.141525 36.441614 -55.381083 -0.000004 0.000022 0.000006 64.587853 11.933133 -3.869248 0.000008 -0.000000 3.002801 -5.000312 7.998752 -0.000150 -2.935413 -179.021280 -2.331039 179.999991 -0.000005 -1.240004 160.623715 2.487830 -0.518406 -0.000004 0.000004 0.565843 72.683786 6.819714 2.084358 27.393131 -7.253003 3.101253 -6.193461 -179.806151 6.527185 -0.000005 -0.000004 -1.082751 -13.798306 -2.749836 0.172135 0.000001 -0.000002 -0.031877 67.548283 -6.999049 -1.960695 25.463229 7.355654 -0.009259 
38.615505 -17.963518 92.922089 -1.793375 -2.342451 41.078872 0.113593 -0.354778 0.602571 4.233942 -0.716977 1.209131 5.878925 -0.702443 1.217628 -18.375768 18.302076 5.803826 10.400659 -9.468841 1.749738 -3.967157 -56.921372 -4.487934 137.821442 -14.554390 75.928768 0.000012 0.000010 0.000003 11.961551 -52.292714 12.119061 0.000002 0.000003 -3.003040 -5.000152 -8.000009 0.000014 -9.346490 71.739567 11.799682 85.105858 36.298767 -55.119084 -0.000005 0.000026 0.000005 64.548928 12.012153 -3.931151 0.000008 0.000000 3.002799 -5.000311 7.998753 -0.000153 -2.911549 -179.046237 -2.315354 179.999991 -0.000004 -1.240000 160.623728 2.446314 -0.524988 -0.000003 0.000004 0.565435 72.688314 6.819736 2.084487 27.410635 -7.251978 3.115502 -6.256770 -179.807161 6.565299 -0.000005 -0.000004 -1.082731 -13.821593 -2.805201 0.165677 0.000001 -0.000001 -0.029693 67.529589 -7.000494 -1.958171 25.463632 7.355647 -0.009869 
